<svg width="720" height="872" xmlns="http://www.w3.org/2000/svg" xmlns:xlink="http://www.w3.org/1999/xlink"><defs><path id="q" d="M0 0h456.925v207H0z"/><path id="a" d="M166.882.34l65.89 38.843v77.688l-65.89 38.845-65.89-38.844V39.184z"/><mask id="s" x="0" y="0" width="131.782" height="155.376" fill="#fff"><use xlink:href="#a"/></mask><path id="b" d="M81.044 140.188l45.327 26.72v53.443l-45.326 26.722-45.327-26.72V166.91z"/><mask id="t" x="0" y="0" width="90.654" height="106.885" fill="#fff"><use xlink:href="#b"/></mask><path id="c" d="M355.075 111.848l45.327 26.72v53.444l-45.327 26.72-45.327-26.72V138.57z"/><mask id="u" x="0" y="0" width="90.654" height="106.885" fill="#fff"><use xlink:href="#c"/></mask><path id="d" d="M299.486 97.063l29.765 17.546v35.093l-29.764 17.547-29.765-17.547V114.61z"/><mask id="v" x="0" y="0" width="59.53" height="70.188" fill="#fff"><use xlink:href="#d"/></mask><path id="w" d="M0 0h456.925v207H0z"/><path id="e" d="M190.17 0l51.168 30.165v60.33l-51.17 30.166L139 90.497v-60.33z"/><mask id="y" x="0" y="0" width="102.338" height="120.661" fill="#fff"><use xlink:href="#e"/></mask><path id="f" d="M81.044 135.188l45.327 26.72v53.443l-45.326 26.722-45.327-26.72V161.91z"/><mask id="z" x="0" y="0" width="90.654" height="106.885" fill="#fff"><use xlink:href="#f"/></mask><path id="g" d="M355.075 106.848l45.327 26.72v53.444l-45.327 26.72-45.327-26.72V133.57z"/><mask id="A" x="0" y="0" width="90.654" height="106.885" fill="#fff"><use xlink:href="#g"/></mask><path id="h" d="M299.486 92.063l29.765 17.546v35.093l-29.764 17.547-29.765-17.547V109.61z"/><mask id="B" x="0" y="0" width="59.53" height="70.188" fill="#fff"><use xlink:href="#h"/></mask><path id="C" d="M0 0h456.925v207H0z"/><path id="i" d="M166.882.34l65.89 38.843v77.688l-65.89 38.845-65.89-38.844V39.184z"/><mask id="E" x="0" y="0" width="131.782" height="155.376" fill="#fff"><use xlink:href="#i"/></mask><path id="j" d="M81.044 140.188l45.327 26.72v53.443l-45.326 26.722-45.327-26.72V166.91z"/><mask id="F" x="0" y="0" width="90.654" height="106.885" fill="#fff"><use xlink:href="#j"/></mask><path id="k" d="M355.075 111.848l45.327 26.72v53.444l-45.327 26.72-45.327-26.72V138.57z"/><mask id="G" x="0" y="0" width="90.654" height="106.885" fill="#fff"><use xlink:href="#k"/></mask><path id="l" d="M299.486 97.063l29.765 17.546v35.093l-29.764 17.547-29.765-17.547V114.61z"/><mask id="H" x="0" y="0" width="59.53" height="70.188" fill="#fff"><use xlink:href="#l"/></mask><path id="I" d="M0 0h456.925v207H0z"/><path id="m" d="M190.17 0l51.168 30.165v60.33l-51.17 30.166L139 90.497v-60.33z"/><mask id="K" x="0" y="0" width="102.338" height="120.661" fill="#fff"><use xlink:href="#m"/></mask><path id="n" d="M81.044 135.188l45.327 26.72v53.443l-45.326 26.722-45.327-26.72V161.91z"/><mask id="L" x="0" y="0" width="90.654" height="106.885" fill="#fff"><use xlink:href="#n"/></mask><path id="o" d="M355.075 106.848l45.327 26.72v53.444l-45.327 26.72-45.327-26.72V133.57z"/><mask id="M" x="0" y="0" width="90.654" height="106.885" fill="#fff"><use xlink:href="#o"/></mask><path id="p" d="M299.486 92.063l29.765 17.546v35.093l-29.764 17.547-29.765-17.547V109.61z"/><mask id="N" x="0" y="0" width="59.53" height="70.188" fill="#fff"><use xlink:href="#p"/></mask></defs><g fill="none" fill-rule="evenodd" opacity=".25"><g transform="rotate(-90 485 -28)"><mask id="r" fill="#fff"><use xlink:href="#q"/></mask><g transform="translate(21.553 22.455)" opacity=".362" mask="url(#r)"><path fill="#5596E6" d="M299.52 183.558v-42.153l-74.94-44.18-74.942 44.18v42.325"/><use stroke="#FFF" mask="url(#s)" stroke-width="4" transform="matrix(1 0 0 -1 0 156.055)" xlink:href="#a"/><use stroke="#FFF" mask="url(#t)" stroke-width="4" xlink:href="#b"/><path fill="#5596E6" d="M27.17 92l27.172 16.018v32.036l-27.17 16.017L0 140.055v-32.036M379.862 50l45.86 27.036v54.073l-45.86 27.036L334 131.11V77.035"/><use stroke="#FFF" mask="url(#u)" stroke-width="4" transform="rotate(-180 355.075 165.29)" xlink:href="#c"/><use stroke="#FFF" mask="url(#v)" stroke-width="2" transform="rotate(-180 299.486 132.156)" xlink:href="#d"/><path fill="#5596E6" d="M546.106 227.01l-34.99-20.628v-41.255l34.99-20.627 34.99 20.627v41.255"/><text font-family="HelvNeueRomanforIBM, HelvNeue Roman for IBM" font-size="16"><tspan x="257.405" y="320.607" fill="#152935">#559</tspan> <tspan x="257.405" y="340.607" fill="#152935">6e6</tspan></text></g></g><g transform="rotate(-90 692.5 179.5)"><mask id="x" fill="#fff"><use xlink:href="#w"/></mask><g transform="translate(21.553 27.455)" opacity=".362" mask="url(#x)"><path fill="#5596E6" d="M299.52 178.558v-42.153l-74.94-44.18-74.942 44.18v42.325"/><use stroke="#FFF" mask="url(#y)" stroke-width="4" transform="matrix(1 0 0 -1 0 120.66)" xlink:href="#e"/><use stroke="#7CC7FF" mask="url(#z)" stroke-width="4" xlink:href="#f"/><path fill="#5596E6" d="M27.17 86.518l27.172 16.018v32.035l-27.17 16.02L0 134.57v-32.034"/><use stroke="#FFF" mask="url(#A)" stroke-width="4" transform="rotate(-180 355.075 160.29)" xlink:href="#g"/><use stroke="#FFF" mask="url(#B)" stroke-width="2" transform="rotate(-180 299.486 127.156)" xlink:href="#h"/><path fill="#5596E6" d="M546.106 222.01l-34.99-20.628v-41.255l34.99-20.627 34.99 20.627v41.255"/><text font-family="HelvNeueRomanforIBM, HelvNeue Roman for IBM" font-size="16"><tspan x="257.405" y="315.607" fill="#152935">#559</tspan> <tspan x="257.405" y="335.607" fill="#152935">6e6</tspan></text></g></g></g><g fill="none" fill-rule="evenodd" opacity=".25"><g transform="matrix(0 -1 -1 0 207 457)"><mask id="D" fill="#fff"><use xlink:href="#C"/></mask><g transform="translate(21.553 22.455)" opacity=".362" mask="url(#D)"><path fill="#5596E6" d="M299.52 183.558v-42.153l-74.94-44.18-74.942 44.18v42.325"/><use stroke="#FFF" mask="url(#E)" stroke-width="4" transform="matrix(1 0 0 -1 0 156.055)" xlink:href="#i"/><use stroke="#FFF" mask="url(#F)" stroke-width="4" xlink:href="#j"/><path fill="#5596E6" d="M27.17 92l27.172 16.018v32.036l-27.17 16.017L0 140.055v-32.036M379.862 50l45.86 27.036v54.073l-45.86 27.036L334 131.11V77.035"/><use stroke="#FFF" mask="url(#G)" stroke-width="4" transform="rotate(-180 355.075 165.29)" xlink:href="#k"/><use stroke="#FFF" mask="url(#H)" stroke-width="2" transform="rotate(-180 299.486 132.156)" xlink:href="#l"/><path fill="#5596E6" d="M546.106 227.01l-34.99-20.628v-41.255l34.99-20.627 34.99 20.627v41.255"/><text font-family="HelvNeueRomanforIBM, HelvNeue Roman for IBM" font-size="16"><tspan x="257.405" y="320.607" fill="#152935">#559</tspan> <tspan x="257.405" y="340.607" fill="#152935">6e6</tspan></text></g></g><g transform="matrix(0 -1 -1 0 207 872)"><mask id="J" fill="#fff"><use xlink:href="#I"/></mask><g transform="translate(21.553 27.455)" opacity=".362" mask="url(#J)"><path fill="#5596E6" d="M299.52 178.558v-42.153l-74.94-44.18-74.942 44.18v42.325"/><use stroke="#FFF" mask="url(#K)" stroke-width="4" transform="matrix(1 0 0 -1 0 120.66)" xlink:href="#m"/><use stroke="#7CC7FF" mask="url(#L)" stroke-width="4" xlink:href="#n"/><path fill="#5596E6" d="M27.17 86.518l27.172 16.018v32.035l-27.17 16.02L0 134.57v-32.034"/><use stroke="#FFF" mask="url(#M)" stroke-width="4" transform="rotate(-180 355.075 160.29)" xlink:href="#o"/><use stroke="#FFF" mask="url(#N)" stroke-width="2" transform="rotate(-180 299.486 127.156)" xlink:href="#p"/><path fill="#5596E6" d="M546.106 222.01l-34.99-20.628v-41.255l34.99-20.627 34.99 20.627v41.255"/><text font-family="HelvNeueRomanforIBM, HelvNeue Roman for IBM" font-size="16"><tspan x="257.405" y="315.607" fill="#152935">#559</tspan> <tspan x="257.405" y="335.607" fill="#152935">6e6</tspan></text></g></g></g></svg>